<?xml version="1.0" standalone="no"?><!DOCTYPE svg PUBLIC "-//W3C//DTD SVG 20010904//EN" "http://www.w3.org/TR/2001/REC-SVG-20010904/DTD/svg10.dtd"><svg xmlns="http://www.w3.org/2000/svg" version="1.0" width="1556.000000pt" height="1556.000000pt" viewBox="0 0 1556.000000 1556.000000" preserveAspectRatio="xMidYMid meet"><metadata>Created by Vitthal Gund</metadata><g transform="translate(0.000000,1556.000000) scale(0.100000,-0.100000)" fill="#000000" stroke="none"><path d="M0 7780 l0 -7780 7780 0 7780 0 0 7780 0 7780 -7780 0 -7780 0 0 -7780z m8380 3214 c6 -16 10 -672 10 -1750 l0 -1724 193 0 194 0 81 53 c96 61 169 107 392 247 91 57 202 127 247 157 45 29 94 58 108 63 21 8 180 14 292 11 60 -2 63 -11 63 -229 0 -194 8 -264 30 -286 8 -8 316 -12 1118 -16 l1107 -5 111 -27 c323 -80 550 -231 651 -435 l38 -77 0 -130 c0 -123 -2 -134 -28 -187 -36 -71 -125 -158 -206 -201 -63 -32 -67 -33 -190 -33 -137 0 -155 5 -233 67 -35 28 -93 130 -113 198 -28 100 -58 159 -105 205 l-51 50 -83 3 c-94 4 -115 -3 -186 -66 -92 -81 -134 -229 -110 -391 14 -100 56 -213 106 -289 36 -55 159 -182 176 -182 6 0 22 -8 36 -19 39 -27 185 -61 261 -61 107 0 237 28 335 71 129 57 189 49 254 -33 58 -73 68 -206 23 -299 -82 -170 -302 -329 -551 -399 -144 -40 -221 -49 -395 -50 -306 0 -535 71 -750 233 -105 78 -145 117 -216 205 -224 279 -299 633 -208 983 26 99 52 162 108 257 23 39 41 75 41 81 0 14 -928 15 -950 1 -13 -8 -15 -66 -18 -406 -3 -415 3 -505 38 -573 68 -134 172 -172 317 -114 38 14 80 35 95 45 58 40 118 36 166 -13 88 -90 76 -258 -27 -372 -38 -42 -165 -142 -216 -171 -16 -9 -37 -20 -45 -26 -47 -28 -159 -72 -265 -101 -71 -21 -103 -23 -285 -24 -225 0 -258 5 -390 61 -126 53 -232 139 -305 247 -36 53 -90 179 -108 252 -5 22 -12 298 -16 620 l-6 580 -233 3 c-128 1 -246 -1 -263 -5 l-29 -8 0 -1379 c0 -1010 -3 -1382 -11 -1392 -10 -12 -504 -14 -3080 -14 -2282 0 -3070 3 -3075 11 -9 15 -9 6783 0 6798 6 9 764 11 3077 11 l3070 -1 9 -25z m5497 -4974 c54 -32 67 -70 60 -175 -4 -49 -11 -103 -16 -120 -5 -16 -22 -70 -36 -120 -55 -182 -92 -218 -290 -281 -79 -25 -105 -29 -212 -29 -120 0 -122 0 -152 29 -47 45 -55 75 -42 151 27 155 122 359 198 425 115 102 404 173 490 120z"/><path d="M2330 7626 c0 -1795 2 -3271 5 -3278 8 -20 5904 -16 5917 4 9 14 10 2577 1 2621 l-5 27 -224 0 c-262 0 -237 13 -279 -140 -98 -358 -350 -812 -594 -1073 -266 -284 -456 -437 -750 -601 -182 -102 -538 -241 -671 -262 -25 -3 -63 -13 -85 -21 -22 -8 -137 -25 -255 -39 -213 -24 -226 -24 -1263 -27 -803 -2 -1051 1 -1058 10 -10 11 -15 4380 -6 4390 5 4 2379 4 2384 0 1 -2 3 -178 4 -391 1 -307 -1 -390 -11 -396 -7 -4 -362 -7 -788 -7 -503 1 -780 -2 -789 -8 -11 -8 -13 -238 -11 -1395 l3 -1385 700 -3 c703 -3 832 2 909 33 17 7 53 16 79 19 50 8 194 54 262 85 22 10 51 22 65 26 33 10 182 89 250 133 211 137 369 284 529 492 343 449 478 1030 367 1590 -60 302 -171 553 -359 810 -75 102 -304 336 -377 385 -25 17 -70 48 -100 71 -187 138 -498 266 -760 313 -63 11 -128 23 -145 27 -16 4 -523 10 -1125 13 l-1095 6 1 376 c1 206 5 386 9 399 l7 23 1072 -7 c589 -4 1127 -11 1196 -17 313 -25 721 -147 1005 -299 50 -27 101 -55 115 -62 105 -57 319 -213 447 -327 470 -415 775 -945 897 -1561 28 -143 59 -466 54 -579 l-3 -76 200 0 200 0 2 1683 2 1682 -2965 0 -2964 0 0 -3264z m3835 592 c3 -13 4 -101 3 -196 l-3 -174 -1105 2 c-850 1 -1106 4 -1112 13 -13 21 -10 351 4 365 9 9 269 12 1110 12 l1098 0 5 -22z m-1917 -448 c37 0 62 -34 62 -85 0 -81 -43 -105 -189 -105 l-98 0 2 98 c2 53 3 99 4 101 0 2 45 1 99 -2 53 -4 107 -7 120 -7z m198 4 c21 -5 22 -11 19 -94 -2 -49 -6 -94 -10 -100 -7 -11 -47 -13 -80 -4 -18 5 -20 13 -20 92 0 48 4 93 8 100 9 13 47 16 83 6z m328 -15 c6 -5 6 -23 0 -46 -8 -32 -14 -38 -44 -44 -30 -7 -38 -4 -57 19 l-21 27 5 -62 6 -62 -41 -10 c-31 -9 -51 -8 -81 1 l-39 12 24 29 c27 33 31 64 9 93 -21 28 -18 52 8 56 37 7 221 -4 231 -13z m151 -59 l0 -75 50 0 c47 0 50 -2 50 -25 0 -25 0 -25 -89 -23 -117 3 -120 5 -113 50 4 20 1 56 -5 80 -14 59 0 75 61 71 l46 -3 0 -75z m368 67 c45 -19 58 -39 59 -87 1 -78 -77 -120 -186 -99 -56 10 -116 51 -116 78 0 14 35 77 56 100 7 7 71 19 112 20 23 1 57 -5 75 -12z m202 -3 c18 -8 43 -26 56 -40 12 -13 25 -24 28 -24 4 0 15 16 25 35 22 40 44 50 93 40 33 -6 35 -8 29 -38 -23 -113 -18 -129 33 -119 30 7 39 17 74 85 38 71 43 77 72 77 36 0 76 -38 144 -135 l42 -60 -37 -9 c-47 -11 -99 6 -133 45 l-25 28 -30 -34 c-23 -24 -43 -35 -73 -39 -23 -3 -44 -2 -47 3 -4 6 -18 5 -34 -1 -19 -7 -41 -8 -68 -1 -38 9 -39 11 -37 49 l2 39 -20 -27 c-11 -15 -26 -25 -33 -22 -7 3 -20 -1 -27 -8 -17 -16 -107 -38 -126 -31 -8 3 -13 22 -13 50 l0 46 33 -7 32 -6 -32 26 c-75 58 -17 121 72 78z"/></g></svg>